<svg xmlns="http://www.w3.org/2000/svg" viewBox="0 0 1000.00003 400.00001"><defs><style>.cls-1{fill:#fff;}.cls-2{fill:#0cf;}.cls-3{fill:#a3bac8;}.cls-4{fill:#5a7c91;}.cls-5{fill:#df0024;}</style></defs><title>Rexroth-Logo_RGBneg</title><g id="Ebene_2" data-name="Ebene 2"><g id="Rexroth-Logo"><g id="A_Bosch_Company" data-name="A Bosch Company"><path id="A" class="cls-1" d="M58.49788,378.43941,52.0077,359.3846H17.75238l-6.48627,19.05481H0L29.3579,297.1427H41.87607l28.9076,81.29671ZM34.9342,309.28087,20.9408,350.104H48.81861Z"/><g id="Bosch"><path id="B" class="cls-1" d="M157.216,378.43941H122.328V297.1427l32.38334.00112c17.24915,0,26.2506,7.37112,26.2506,21.40539,0,8.26-3.15235,13.12307-11.41233,17.38092,10.8942,3.532,15.61658,9.5341,15.61658,19.49589C185.16617,370.022,175.02572,378.43941,157.216,378.43941Zm-2.50468-72.02949H133.95248v25.54264H156.4321c8.7301,0,13.00917-4.29247,13.00917-13.0583C169.44127,310.32607,164.79147,306.40992,154.71132,306.40992Zm2.27465,34.80093H133.95248v27.94124H157.9061c10.0768,0,15.74947-4.94237,15.74947-14.07112C173.65557,345.94328,167.85784,341.21085,156.986,341.21085Z"/><path id="o" class="cls-1" d="M225.63556,379.56612c-16.63275,0-28.63022-12.80705-28.63022-30.66367,0-18.15924,11.99858-30.99532,28.97415-30.99532,16.40384,0,28.40019,12.94887,28.40019,30.65027C254.37968,366.63735,242.38445,379.56612,225.63556,379.56612Zm.34393-52.37838c-10.70995,0-16.89852,7.98417-16.89852,21.59858,0,13.30955,6.30359,21.5137,16.44069,21.5137,10.47768,0,16.77234-8.2008,16.77234-21.6276C242.294,335.62193,236.00269,327.18774,225.97949,327.18774Z"/><path id="s" class="cls-1" d="M289.957,379.56612c-10.8272,0-18.38257-3.2495-25.04907-10.5659l7.38228-6.95013C277.18228,368.156,281.649,370.3,289.38075,370.3c8.212,0,12.8037-2.85532,12.8037-8.24993,0-5.063-2.77156-6.72792-14.69757-9.40122-13.49938-3.02617-18.9945-8.17959-18.9945-17.65674,0-10.4922,8.19522-17.085,21.57847-17.085,9.11535,0,15.09175,2.24226,20.94421,7.94285l-6.729,7.5308c-4.42423-4.39855-8.65194-6.193-14.56245-6.193-6.61179,0-10.39617,2.39972-10.39617,6.89989,0,4.939,2.87765,6.73238,13.32518,8.92105,6.48114,1.35787,10.23761,2.60407,13.26712,4.55042,4.85974,3.12332,7.32087,7.78987,7.32087,13.7953C313.24057,372.51325,304.35749,379.56612,289.957,379.56612Z"/><path id="c" class="cls-1" d="M353.92659,379.56612c-16.73772,0-28.28629-12.462-28.28629-30.66367,0-18.39374,11.323-30.99532,28.06407-30.99532,10.59159,0,18.14026,4.27571,23.67893,13.611l-9.28509,5.408c-4.41307-7.43477-7.762-9.73846-14.05772-9.73846-10.4721,0-16.54677,7.98752-16.54677,21.59858,0,13.75845,5.95072,21.5137,16.77569,21.5137,7.083,0,11.21915-2.737,15.4234-10.1036l8.93669,5.09982C373.09083,374.96881,365.07763,379.56612,353.92659,379.56612Z"/><path id="h" class="cls-1" d="M429.32755,378.43941V341.7167c0-9.63795-3.5711-14.07-11.53182-14.07-8.748,0-14.28552,5.88819-14.28552,15.20454l-.00111,35.58818H391.88794V292.80222H403.5091l.00111,36.00469c3.92509-7.49842,9.90037-10.89978,18.042-10.89978,12.4017,0,19.41772,8.34038,19.41772,23.25793v37.27435Z"/></g><g id="Company"><path id="C-2" data-name="C" class="cls-1" d="M549.37088,373.219c-5.5208,4.221-12.45642,6.34713-20.73985,6.34713-22.19041,0-36.93711-16.453-36.93711-41.61706,0-24.92959,15.0951-42.06931,36.83661-42.06931,9.524,0,17.2324,2.833,22.87269,8.28009,3.8458,3.71515,5.96635,7.20808,8.88755,14.75675l-10.38054,3.98762c-4.231-12.37825-10.5525-17.52832-21.2792-17.52832-15.47142,0-24.84026,12.32354-24.84026,32.45816,0,20.13685,9.37107,32.25045,25.06917,32.25045,11.20352,0,17.84211-5.60678,21.84871-18.444l10.4989,4.1071C557.81512,364.52574,554.67058,369.16549,549.37088,373.219Z"/><path id="o-2" data-name="o" class="cls-1" d="M600.69762,379.56612c-16.63164,0-28.63022-12.80705-28.63022-30.66367,0-18.15924,11.99858-30.99532,28.95964-30.99532,16.40383,0,28.40354,12.94887,28.40354,30.65027C629.43058,366.63735,617.43087,379.56612,600.69762,379.56612Zm.32942-52.37838c-10.68874,0-16.884,7.98417-16.884,21.59858,0,13.30955,6.30805,21.5137,16.43287,21.5137,10.481,0,16.779-8.2008,16.779-21.6276C617.35494,335.62193,611.06029,327.18774,601.027,327.18774Z"/><path id="m" class="cls-1" d="M716.39239,378.43941l-.00112-36.83661c0-9.50619-3.20706-13.95611-10.289-13.95611-8.07573,0-13.24478,6.02889-13.24478,15.11074v35.682H681.2252V341.6028c0-9.39452-3.3299-13.95611-10.404-13.95611-7.96183,0-13.13088,6.03-13.13088,15.11074v35.682H646.05912V319.05618h11.63121v9.49836c3.90386-7.25275,9.32975-10.64741,16.66625-10.64741,7.78094,0,12.95669,3.39243,16.46972,10.90536,4.92-7.50958,10.67869-10.90536,18.45292-10.90536,11.83779,0,18.75107,8.57153,18.75107,23.25793v37.27435Z"/><path id="p" class="cls-1" d="M778.96285,379.56612c-8.37947,0-14.91309-3.61911-19.40209-10.9143v30.55089h-11.61V319.05618h11.61v9.97406c4.81842-7.49283,11.2627-11.12311,19.40209-11.12311,15.02028,0,24.991,12.11025,24.991,30.65027C803.95385,367.4715,794.0881,379.56612,778.96285,379.56612Zm-2.74365-52.37838c-10.69544,0-16.99456,8.09807-16.99456,21.59858,0,13.64343,6.06909,21.5137,16.76564,21.5137,10.72,0,16.12467-7.18575,16.12467-21.28367C792.115,335.30033,786.258,327.18774,776.2192,327.18774Z"/><path id="a-2" data-name="a" class="cls-1" d="M866.435,379.01337c-6.87309,0-10.90314-2.71238-13.02146-8.98135-5.15676,6.72569-10.81045,9.5341-18.25527,9.5341-11.08627,0-18.51657-6.78375-18.51657-16.72655,0-8.57377,5.15677-14.616,15.24362-17.52944,5.67155-1.63815,10.55809-2.18308,20.84594-2.39413v-3.25844c0-8.61508-3.484-12.46982-11.31965-12.46982-6.1573,0-11.05724,2.0435-16.93984,6.98587l-5.944-7.50065c7.10424-6.16735,14.09011-8.76583,23.67111-8.76583,14.367,0,22.1502,7.58216,22.1502,21.536v25.10491c0,3.848,1.63145,5.752,4.93791,5.752a8.88608,8.88608,0,0,0,1.2127-.06923v8.45428A39.66205,39.66205,0,0,1,866.435,379.01337Zm-13.70374-28.322c-16.2944.12283-24.56444,3.87037-24.56444,11.45924,0,5.37116,3.608,8.49448,9.82444,8.49448,8.58493,0,14.74-5.04733,14.74-12.2476Z"/><path id="n" class="cls-1" d="M923.2345,378.43941V341.7167c0-9.63795-3.56328-14.07-11.55527-14.07-8.72117,0-14.26877,5.88819-14.26877,15.20454l.00112,35.58818H885.786V319.05618h11.62562l-.00112,9.7485c3.93737-7.49619,9.90149-10.89755,18.03529-10.89755,12.40394,0,19.42107,8.34038,19.42107,23.25793v37.27435Z"/><path id="y" class="cls-1" d="M975.84764,386.06736C972.44851,395.49984,966.81715,400,958.47454,400a20.06465,20.06465,0,0,1-11.85677-3.53425l3.72408-8.04447a12.56264,12.56264,0,0,0,7.33874,2.326c4.42088,0,7.1221-2.37962,8.67985-7.31752l1.74088-5.523-22.46957-58.85058h12.38719L973.736,362.41412l14.67636-43.35794H1000Z"/></g></g><g id="Rexroth-Logo-2" data-name="Rexroth-Logo"><g id="r"><polygon class="cls-2" points="44.951 231.625 44.952 187.92 23.559 174.337 0 178.02 0 231.625 44.951 231.625"/><path class="cls-1" d="M44.95177,151.02976c.00045-25.23443,13.54981-41.40036,34.89953-41.40036A33.98059,33.98059,0,0,1,98.58,114.64856L109.69624,73.926c-6.95838-4.23056-13.68125-5.93965-22.14954-5.93965-17.62292,0-30.24193,9.25959-42.59493,34.54067l-.00045-31.12294H0V178.02038c8.19825,2.04956,23.59846,5.69517,44.95177,9.89927Z"/></g><g id="e"><path class="cls-2" d="M192.41083,235.03088c24.72664,0,44.35561-7.73442,58.69761-22.59543.06056-.0628.11349-.135.174-.19782l-61.792-7.725-65.68194-3.60529C137.49655,221.59815,160.97882,235.03088,192.41083,235.03088Z"/><path class="cls-1" d="M261.03373,199.8927l-34.69947-17.3605c-8.63921,13.65657-17.84093,18.93726-33.30529,18.93726-18.42722,0-27.86983-9.16405-32.662-18.53847a46.83038,46.83038,0,0,1-4.24985-12.93436c-.63609-3.54513-.70427-6.03744-.93619-7.60433H264.57437l-.00269-11.66578c-.00225-52.29323-27.93264-83.37894-74.314-83.37894-47.04888,0-80.16487,35.17676-80.16487,85.55052,0,18.00242,4.79936,34.53125,13.71579,48.00929,36.81183,4.95457,79.96928,9.26049,127.47392,11.33024A77.91261,77.91261,0,0,0,261.03373,199.8927Zm-71.08112-99.59152c19.48991,0,28.39871,10.56227,31.013,35.33869H156.06148C160.66751,111.10074,170.809,100.30118,189.95261,100.30118Z"/></g><g id="x"><polygon class="cls-3" points="376.885 231.625 429.379 231.625 412.753 206.727 386.938 204.348 364.425 211.511 376.885 231.625"/><polygon class="cls-4" points="310.189 231.625 321.802 213.396 300.115 208.999 276.66 213.119 264.159 231.625 310.189 231.625"/><path class="cls-1" d="M321.80243,213.39586l22.20248-34.84974,20.42026,32.96481c16.09192-1.15644,32.21075-2.78344,48.32778-4.78411l-40.50723-60.66194,51.56115-74.66079H377.80363l-29.19136,47.19108L319.412,71.40409h-51.593l51.60735,78.4015-42.76673,63.31305q16.61384.41718,33.81217.43377C314.243,213.55241,318.02449,213.45776,321.80243,213.39586Z"/></g><g id="r-2" data-name="r"><polygon class="cls-3" points="493.074 231.625 493.074 194.012 470.607 194.012 448.139 201.779 448.139 231.625 493.074 231.625"/><path class="cls-1" d="M493.07437,151.02976c0-25.23443,13.55878-41.40036,34.8955-41.40036a34.0135,34.0135,0,0,1,18.72732,5.01916l11.11268-40.72031c-6.9678-4.23056-13.67855-5.94189-22.15717-5.94189-17.62023,0-30.23385,9.25959-42.57833,34.54561V71.40409H448.13875V201.779q22.523-3.50768,44.93562-7.76717Z"/></g><g id="o-3" data-name="o"><path class="cls-3" d="M719.63247,150.71889c0-2.281-.092-4.60153-.27588-6.94716l-25.45042-3.97913L673.78,153.97559c-.02153,1.54177-.0933,3.57832-.29516,5.94413a68.979,68.979,0,0,1-3.398,16.663c-3.88919,11.10281-12.01477,21.914-28.25875,23.34725L635.10775,218.522l10.46772,16.17471C689.35107,231.32426,719.63247,197.79873,719.63247,150.71889Z"/><path class="cls-2" d="M638.25868,200.21613c-20.17623,0-29.71529-13.8082-33.35642-30.17734l-22.89459-1.27217-21.0842,11.27327c13.265,46.34416,59.10626,54.991,77.33521,54.991,2.486,0,4.90971-.14893,7.31679-.33419L641.828,199.92993C640.64558,200.03445,639.53,200.21613,638.25868,200.21613Z"/><path class="cls-1" d="M603.50045,161.40318a92.43049,92.43049,0,0,1-.45755-10.04775c0-31.938,12.19958-49.19354,36.134-49.19354,22.42631,0,34.59674,17.90193,34.59674,48.86787,0,.38085.02781,1.422.00628,2.94583q23.11578-5.33183,45.57664-10.20386c-2.77177-35.31312-26.67526-76.42415-79.86611-76.42415-48.62294,0-82.32612,34.90492-82.32612,84.936a99.74812,99.74812,0,0,0,3.75911,27.75635q22.15558-4.90052,43.97879-10.0011A75.22766,75.22766,0,0,1,603.50045,161.40318Z"/></g><g id="t"><path class="cls-4" d="M798.46819,235.03088c14.87581,0,26.48821-3.82684,37.2021-12.02374l-10.709-29.7467c-5.49421,3.05528-10.31241,4.48536-15.72767,4.48536-10.05268,0-14.59455-6.34113-14.59455-18.75649V129.48984l-21.58075-2.39938-23.37954,10.42179V184.885C749.67882,216.90869,767.38248,235.03088,798.46819,235.03088Z"/><path class="cls-1" d="M794.63911,106.19687l33.83775.00224v-34.795H794.63911V22.78383l-44.96029,15.703V71.40409H727.53914v34.795l22.13968-.00224v31.31538c15.28985-3.01626,30.29531-5.72837,44.96029-8.02241Z"/></g><g id="h-2" data-name="h"><path class="cls-5" d="M955.05451,133.96532v97.65994H1000V135.10875c0-.04485-.00269-.08792-.00269-.13278l-22.67169-13.45785-22.67438,5.39193A63.61862,63.61862,0,0,1,955.05451,133.96532Z"/><path class="cls-2" d="M899.39513,231.62526l.00225-94.54589a48.47579,48.47579,0,0,1,2.19176-15.17861L877.12548,115.455l-22.67359,7.09756V231.62526Z"/><path class="cls-1" d="M901.58914,121.90076c6.31287-19.30689,24.49427-19.73125,28.40454-19.73125a26.4911,26.4911,0,0,1,4.42884.03679,21.05953,21.05953,0,0,1,8.61812,2.75428c5.31522,3.13647,10.24647,9.52694,11.6106,21.94947,15.38585,2.20119,30.54292,4.951,45.34607,8.06592-.02692-39.362-11.64066-67.62839-49.69012-67.62839-22.38953,0-38.34777,9.44306-50.90981,32.60146L899.39513,0H854.45189V122.55255q15.20889-1.012,29.74939-1.03443C889.99917,121.51812,895.79618,121.6675,901.58914,121.90076Z"/></g></g></g></g></svg>
